<?xml version="1.0" encoding="UTF-8" standalone="no"?>
<svg xmlns="http://www.w3.org/2000/svg" width="800" height="800" viewBox="0 0 800 800">
  <g transform="translate(0,0) scale(0.8)">
    <path d="M 500,50 C 350,50 250,150 250,300 C 250,450 350,550 500,550 C 650,550 750,450 750,300 C 750,150 650,50 500,50 z M 500,100 C 625,100 700,175 700,300 C 700,425 625,500 500,500 C 375,500 300,425 300,300 C 300,175 375,100 500,100 z" fill="#000080"/>
    <path d="M 500,150 C 400,150 350,200 350,300 C 350,400 400,450 500,450 C 600,450 650,400 650,300 C 650,200 600,150 500,150 z M 500,200 C 575,200 600,225 600,300 C 600,375 575,400 500,400 C 425,400 400,375 400,300 C 400,225 425,200 500,200 z" fill="#000080"/>
    <path d="M 500,250 C 475,250 450,275 450,300 C 450,325 475,350 500,350 C 525,350 550,325 550,300 C 550,275 525,250 500,250 z" fill="#000080"/>
    <path d="M 500,50 L 500,550 M 250,300 L 750,300" stroke="#000080" stroke-width="10"/>
    <path d="M 350,150 L 650,450 M 350,450 L 650,150" stroke="#000080" stroke-width="10"/>
    <path d="M 500,50 C 450,100 400,200 400,300 C 400,400 450,500 500,550 C 550,500 600,400 600,300 C 600,200 550,100 500,50 z" fill="none" stroke="#000080" stroke-width="10"/>
    <path d="M 250,300 C 300,350 400,400 500,400 C 600,400 700,350 750,300 C 700,250 600,200 500,200 C 400,200 300,250 250,300 z" fill="none" stroke="#000080" stroke-width="10"/>
    <path d="M 350,150 C 400,200 450,250 500,250 C 550,250 600,200 650,150 C 600,100 550,50 500,50 C 450,50 400,100 350,150 z" fill="none" stroke="#000080" stroke-width="10"/>
    <path d="M 350,450 C 400,400 450,350 500,350 C 550,350 600,400 650,450 C 600,500 550,550 500,550 C 450,550 400,500 350,450 z" fill="none" stroke="#000080" stroke-width="10"/>
  </g>
  <g transform="translate(400,400) scale(0.4)">
    <path d="M -300,-300 L -300,300 L 300,300 L 300,-300 z" fill="none" stroke="#000080" stroke-width="20"/>
    <path d="M -200,-200 L -200,200 L 200,200 L 200,-200 z" fill="none" stroke="#000080" stroke-width="15"/>
    <path d="M -100,-100 L -100,100 L 100,100 L 100,-100 z" fill="none" stroke="#000080" stroke-width="10"/>
    <path d="M 0,-300 L 0,300 M -300,0 L 300,0" stroke="#000080" stroke-width="20"/>
    <path d="M -200,-200 L 200,200 M -200,200 L 200,-200" stroke="#000080" stroke-width="15"/>
  </g>
</svg>
